<svg width="25" height="24" viewBox="0 0 25 24" fill="none" xmlns="http://www.w3.org/2000/svg">
<g opacity="0.6" clip-path="url(#clip0_277_46)">
<path d="M2.83935 10.3473C2.67546 10.6849 2.59043 11.0554 2.59067 11.4306L2.68315 17.2405L0.668271 21.5644C0.595328 21.699 0.546514 21.8453 0.524043 21.9967C0.49809 22.1666 0.50598 22.34 0.547262 22.5069C0.588544 22.6738 0.662403 22.8309 0.764593 22.9691C0.866784 23.1074 0.995291 23.2241 1.14273 23.3126C1.29017 23.401 1.45363 23.4594 1.62372 23.4845C1.8887 23.525 2.15975 23.4831 2.40005 23.3643C2.64035 23.2455 2.83823 23.0555 2.96681 22.8203L5.18341 18.0939C5.22941 17.9841 5.27062 17.8687 5.28739 17.7422L5.29937 17.5639L5.28212 13.9721L8.68852 15.4537L9.23858 18.964C9.29571 19.222 9.42972 19.4566 9.62304 19.6367C9.81627 19.8169 10.0597 19.9343 10.321 19.9732C10.6639 20.0238 11.0131 19.9372 11.2927 19.7323C11.5723 19.5274 11.76 19.2206 11.8151 18.8783C11.8318 18.757 11.8318 18.6358 11.8203 18.5208L11.149 14.2831C11.1087 14.0798 11.0211 13.8888 10.8934 13.7255C10.7658 13.5622 10.6015 13.4312 10.414 13.343L7.36935 11.9956L9.30806 8.63471L10.2698 9.85133C10.368 9.96057 10.4954 10.053 10.6396 10.1105L14.3043 11.1767C14.5413 11.2285 14.789 11.1951 15.0038 11.0824C15.2187 10.9697 15.387 10.785 15.4791 10.5605C15.5302 10.4351 15.556 10.3008 15.5552 10.1655C15.5543 10.03 15.5268 9.89618 15.4741 9.77145C15.4215 9.64672 15.3448 9.53359 15.2484 9.43851C15.152 9.34342 15.0378 9.26833 14.9123 9.21742L14.8601 9.20012L11.6761 8.26628L9.27931 5.40136C8.90946 5.00688 8.41862 4.74704 7.88443 4.66297C7.42323 4.59419 6.95196 4.66179 6.52867 4.85743C6.10537 5.05307 5.74853 5.36822 5.50206 5.76408L2.83935 10.3473ZM13.3517 18.677L13.1202 20.4178L6.8164 21.9449L6.87725 23.0211H22.2516C22.3806 23.0217 22.5085 22.9968 22.6278 22.9479C22.7471 22.8989 22.8557 22.827 22.9471 22.736C23.0386 22.645 23.1112 22.5369 23.1609 22.4179C23.2105 22.2988 23.2361 22.1712 23.2363 22.0422L23.2191 1.40515L21.1127 0.915443L19.9023 6.34099L17.8788 7.18815L16.0844 12.1911L17.7892 16.0191L17.3091 17.4887L13.3517 18.677ZM9.07133 4.40901C10.1538 4.40901 11.0335 3.5331 11.0335 2.45499C11.033 1.37735 10.1538 0.500488 9.07133 0.500488C7.98894 0.500488 7.10869 1.37735 7.10869 2.45499C7.10821 3.5331 7.98842 4.40901 9.07133 4.40901ZM5.16664 4.71472C5.20319 4.65114 5.22679 4.58096 5.2361 4.50821C5.2454 4.43546 5.24021 4.3616 5.22083 4.29087C5.20146 4.22014 5.16828 4.15394 5.1232 4.0961C5.07813 4.03825 5.02206 3.98989 4.95821 3.95381L4.00851 3.40038C3.87865 3.32683 3.72505 3.30736 3.58095 3.34619C3.43685 3.38501 3.31382 3.47901 3.2385 3.60785L0.309858 8.641C0.273483 8.70457 0.250006 8.77472 0.240772 8.84741C0.231538 8.92011 0.236727 8.99386 0.256042 9.06454C0.275358 9.13521 0.308421 9.2014 0.353339 9.25927C0.398256 9.31714 0.454148 9.36566 0.517814 9.4019L1.47326 9.95001C1.60145 10.0241 1.75376 10.0444 1.89688 10.0065C2.04001 9.96865 2.1623 9.87567 2.23705 9.74787L5.16664 4.71472Z" fill="white"/>
</g>
<defs>
<clipPath id="clip0_277_46">
<rect width="24" height="24" fill="white" transform="translate(0.236328)"/>
</clipPath>
</defs>
</svg>
