<svg width="20" height="21" viewBox="0 0 20 21" fill="none" xmlns="http://www.w3.org/2000/svg">
<path d="M8.69066 4.30657L2.20522 15.1335C2.07151 15.3651 2.00075 15.6276 2.00001 15.895C1.99926 16.1624 2.06854 16.4253 2.20095 16.6576C2.33337 16.89 2.52431 17.0835 2.75477 17.2191C2.98523 17.3548 3.24718 17.4277 3.51456 17.4306H16.4854C16.7528 17.4277 17.0148 17.3548 17.2452 17.2191C17.4757 17.0835 17.6666 16.89 17.799 16.6576C17.9315 16.4253 18.0007 16.1624 18 15.895C17.9992 15.6276 17.9285 15.3651 17.7948 15.1335L11.3093 4.30657C11.1728 4.08154 10.9806 3.89549 10.7513 3.76636C10.522 3.63724 10.2632 3.5694 10 3.5694C9.7368 3.5694 9.47805 3.63724 9.2487 3.76636C9.01936 3.89549 8.82716 4.08154 8.69066 4.30657V4.30657Z" stroke="#FF5F55" stroke-linecap="round" stroke-linejoin="round"/>
<path d="M10.0002 8.24228V11.3051" stroke="#FF5F55" stroke-linecap="round" stroke-linejoin="round"/>
<path d="M10.0002 14.3678H10.0078" stroke="#FF5F55" stroke-linecap="round" stroke-linejoin="round"/>
</svg>
