<svg width="20" height="20" viewBox="0 0 20 20" fill="none" xmlns="http://www.w3.org/2000/svg">
<path d="M18.6322 9.04C18.8682 9.28894 18.9998 9.61894 18.9998 9.962C18.9998 10.3051 18.8682 10.6351 18.6322 10.884C17.1722 12.46 13.8562 15.5 10.0002 15.5C6.14417 15.5 2.82817 12.46 1.36817 10.884C1.13213 10.6351 1.00055 10.3051 1.00055 9.962C1.00055 9.61894 1.13213 9.28894 1.36817 9.04C3.54526 6.46126 6.64176 4.83266 10.0002 4.5C13.3586 4.83266 16.4551 6.46126 18.6322 9.04Z" stroke="white" stroke-opacity="0.6" stroke-linecap="round" stroke-linejoin="round"/>
<path d="M7.5 10C7.5 10.663 7.76339 11.2989 8.23223 11.7678C8.70107 12.2366 9.33696 12.5 10 12.5C10.663 12.5 11.2989 12.2366 11.7678 11.7678C12.2366 11.2989 12.5 10.663 12.5 10C12.5 9.33696 12.2366 8.70107 11.7678 8.23223C11.2989 7.76339 10.663 7.5 10 7.5C9.33696 7.5 8.70107 7.76339 8.23223 8.23223C7.76339 8.70107 7.5 9.33696 7.5 10V10Z" stroke="white" stroke-opacity="0.6" stroke-linecap="round" stroke-linejoin="round"/>
</svg>
