<svg width="25" height="24" viewBox="0 0 25 24" fill="none" xmlns="http://www.w3.org/2000/svg">
<path d="M20.2363 20.8241C20.2363 21.0894 20.131 21.3437 19.9434 21.5312C19.7559 21.7188 19.5015 21.8241 19.2363 21.8241H5.23633C4.97111 21.8241 4.71676 21.7188 4.52922 21.5312C4.34169 21.3437 4.23633 21.0894 4.23633 20.8241V11.8241H1.23633L11.5633 2.43614C11.7474 2.26862 11.9874 2.17578 12.2363 2.17578C12.4852 2.17578 12.7252 2.26862 12.9093 2.43614L23.2363 11.8241H20.2363V20.8241ZM7.73633 13.8241C7.73633 15.0176 8.21043 16.1622 9.05435 17.0061C9.89826 17.85 11.0429 18.3241 12.2363 18.3241C13.4298 18.3241 14.5744 17.85 15.4183 17.0061C16.2622 16.1622 16.7363 15.0176 16.7363 13.8241H14.7363C14.7363 14.4872 14.4729 15.1231 14.0041 15.5919C13.5353 16.0607 12.8994 16.3241 12.2363 16.3241C11.5733 16.3241 10.9374 16.0607 10.4686 15.5919C9.99972 15.1231 9.73633 14.4872 9.73633 13.8241H7.73633Z" fill="#FFFFFF99"/>
</svg>
