<svg width="25" height="24" viewBox="0 0 25 24" fill="none" xmlns="http://www.w3.org/2000/svg">
<g opacity="0.6" clip-path="url(#clip0_277_40)">
<path d="M5.78583 13.2165L5.63192 13.5361L5.8828 13.7869C6.17817 14.0823 6.40299 14.6164 6.40299 15.1666C6.40299 16.3572 5.42685 17.3333 4.23633 17.3333C3.04581 17.3333 2.06966 16.3572 2.06966 15.1666C2.06966 13.9761 3.0458 13 4.23633 13H4.50299H4.81719L4.95349 12.7169L6.68683 9.11691L6.84072 8.7973L6.58989 8.54646C6.29448 8.25102 6.06966 7.71687 6.06966 7.16667C6.06966 5.97614 7.04581 5 8.2363 5C9.42688 5 10.403 5.97615 10.403 7.16667V7.43333V7.74753L10.6861 7.88383L14.2861 9.61713L14.6057 9.77102L14.8566 9.52019C15.1519 9.22484 15.6862 8.99997 16.2364 8.99997H16.503H16.8172L16.9535 8.71688L18.6868 5.11691L18.8407 4.79727L18.5899 4.54643C18.2945 4.25105 18.0697 3.7169 18.0697 3.16666C18.0697 1.97614 19.0458 1 20.2363 1C21.4269 1 22.403 1.97615 22.403 3.16666C22.403 4.35719 21.4269 5.33333 20.2363 5.33333H19.9697H19.6555L19.5192 5.61643L17.7858 9.21643L17.654 9.49024L17.8363 9.73335C18.2034 10.2228 18.403 10.6516 18.403 11.1667C18.403 12.3572 17.4268 13.3333 16.2364 13.3333C15.0458 13.3333 14.0696 12.3572 14.0696 11.1667V11.0334V10.7294L13.7998 10.5895L10.1998 8.72276L9.87486 8.55426L9.61606 8.81311C9.32072 9.10851 8.7865 9.33337 8.2363 9.33337H7.96966H7.65546L7.51916 9.61646L5.78583 13.2165ZM0.736328 22.3334H23.7363V24H0.736328V22.3334Z" fill="white" stroke="black"/>
</g>
<defs>
<clipPath id="clip0_277_40">
<rect width="24" height="24" fill="white" transform="translate(0.236328)"/>
</clipPath>
</defs>
</svg>
